<?xml version="1.0" encoding="utf-8"?>
<!-- Generator: Adobe Illustrator 24.0.0, SVG Export Plug-In . SVG Version: 6.00 Build 0)  -->
<svg version="1.1" id="Layer_1" xmlns="http://www.w3.org/2000/svg" xmlns:xlink="http://www.w3.org/1999/xlink" x="0px" y="0px"
	 viewBox="0 0 512 512" style="enable-background:new 0 0 512 512;" xml:space="preserve">
<style type="text/css">
	.st0{fill:#FFFFFF;}
	.st1{fill:#FF637B;}
	.st2{fill:#E63950;}
	.st3{fill:#FFDA2D;}
	.st4{fill:#FDBF00;}
	.st5{fill:#FF9100;}
	.st6{fill:#FF4B00;}
	.st7{fill:#FFE9CB;}
	.st8{fill:#FFD17B;}
	.st9{fill:#FFBEAA;}
	.st10{fill:#FFA68D;}
	.st11{fill:#FF9F00;}
	.st12{fill:#FF7816;}
	.st13{fill:#CC2E43;}
	.st14{fill:#FFD400;}
</style>
<circle class="st0" cx="256" cy="256" r="256"/>
<g>
	<path class="st1" d="M-616.9,338.4c-3.5,0-7.3,0-11,0.4h-0.6c-68.1,6.4-124.1,71.1-124.1,143.2c0,83.7,77.8,93.5,135.7,93.5
		c57.5,0,124.6-8.7,134-77.5C-473.2,417.3-537.2,338.4-616.9,338.4z"/>
	<path class="st2" d="M-482.9,497.9c-9.3,68.8-76.4,77.5-134,77.5V338.4C-537.2,338.4-473.2,417.3-482.9,497.9z"/>
	<path class="st1" d="M-544.8,255.4l-20.8,63h-102.6l-20.8-63c-1.2-3.1-0.6-6.6,1.2-9.3c2.1-2.7,5.2-4.4,8.5-4.4h33
		c4.2-12,15.8-20.8,29.3-20.8c13.5,0,24.9,8.7,29.3,20.8h33c3.3,0,6.4,1.7,8.5,4.4C-544.2,248.8-543.6,252.3-544.8,255.4z"/>
	<path class="st2" d="M-544.8,255.4l-20.8,63h-51.3v-97.5c13.5,0,24.9,8.7,29.3,20.8h33c3.3,0,6.4,1.7,8.5,4.4
		C-544.2,248.8-543.6,252.3-544.8,255.4z"/>
	<path class="st3" d="M-586,485.1c0,13.5-8.5,24.7-20.6,29.1v9.3c0,5.8-4.6,10.4-10.4,10.4c-5.8,0-10.4-4.6-10.4-10.4v-9.1
		c-12-4.4-21-15.8-21-29.3c0-5.8,4.8-10.4,10.4-10.4c5.8,0,10.4,4.6,10.4,10.4c0,5.6,4.8,10.4,10.4,10.4h0.2
		c5.8-0.2,10.2-4.8,10.2-10.4c0-5.8-4.4-10.2-10.2-10.4h-0.2c-17,0-31.2-14.1-31.2-31.2c0-13.7,8.9-25.1,21-29.3v-15.4
		c0-5.8,4.6-10.4,10.4-10.4c5.8,0,10.4,4.6,10.4,10.4v15.4c12,4.4,20.6,15.8,20.6,29.3c0,5.6-4.6,10.4-10.4,10.4
		c-5.6,0-10.4-4.8-10.4-10.4c0-5.8-4.4-10.2-10.2-10.4h-0.2c-5.6,0-10.4,4.6-10.4,10.4c0,5.6,4.8,10.4,10.4,10.4h0.2
		C-599.7,454.1-586,467.8-586,485.1z"/>
	<path class="st3" d="M-398.1,430c0,11.4-9.3,20.8-20.8,20.8l-52.6,20.8l-51.9-20.8c-11.4,0-20.8-9.3-20.8-20.8
		c0-11.4,9.3-20.8,20.8-20.8h104.5C-407.5,409.2-398.1,418.6-398.1,430z"/>
	<path class="st4" d="M-398.1,430c0,11.4-9.3,20.8-20.8,20.8l-52.6,20.8v-62.3h52.6C-407.5,409.2-398.1,418.6-398.1,430z"/>
	<path class="st4" d="M-398.1,471.6c0,11.4-9.3,20.8-20.8,20.8l-52.6,20.8l-51.9-20.8c-11.4,0-20.8-9.3-20.8-20.8
		s9.3-20.8,20.8-20.8h104.5C-407.5,450.8-398.1,460.1-398.1,471.6z"/>
	<path class="st5" d="M-398.1,471.6c0,11.4-9.3,20.8-20.8,20.8l-52.6,20.8v-62.3h52.6C-407.5,450.8-398.1,460.1-398.1,471.6z"/>
	<path class="st3" d="M-398.1,513.1c0,11.4-9.3,20.8-20.8,20.8l-52.6,20.8l-51.9-20.8c-11.4,0-20.8-9.3-20.8-20.8
		s9.3-20.8,20.8-20.8h104.5C-407.5,492.3-398.1,501.7-398.1,513.1z"/>
	<path class="st4" d="M-398.1,513.1c0,11.4-9.3,20.8-20.8,20.8l-52.6,20.8v-62.3h52.6C-407.5,492.3-398.1,501.7-398.1,513.1z"/>
	<path class="st4" d="M-398.1,554.6c0,11.4-9.3,20.8-20.8,20.8h-104.5c-11.4,0-20.8-9.3-20.8-20.8s9.3-20.8,20.8-20.8h104.5
		C-407.5,533.9-398.1,543.2-398.1,554.6z"/>
	<path class="st5" d="M-398.1,554.6c0,11.4-9.3,20.8-20.8,20.8h-52.6v-41.5h52.6C-407.5,533.9-398.1,543.2-398.1,554.6z"/>
	<path class="st3" d="M-544.2,325.5c0,11.4-9.3,20.8-20.8,20.8h-103.9c-11.4,0-20.8-9.3-20.8-20.8s9.3-20.8,20.8-20.8H-565
		C-553.6,304.7-544.2,314-544.2,325.5z"/>
	<g>
		<path class="st4" d="M-586,485.1c0,13.5-8.5,24.7-20.6,29.1v9.3c0,5.8-4.6,10.4-10.4,10.4v-38.4c5.8-0.2,10.2-4.8,10.2-10.4
			c0-5.8-4.4-10.2-10.2-10.4v-20.8C-599.7,454.1-586,467.8-586,485.1z"/>
		<path class="st4" d="M-586,443.5c0,5.6-4.6,10.4-10.4,10.4c-5.6,0-10.4-4.8-10.4-10.4c0-5.8-4.4-10.2-10.2-10.4v-44.7
			c5.8,0,10.4,4.6,10.4,10.4v15.4C-594.5,418.6-586,430-586,443.5z"/>
		<path class="st4" d="M-544.2,325.5c0,11.4-9.3,20.8-20.8,20.8h-51.9v-41.5h51.9C-553.6,304.7-544.2,314-544.2,325.5z"/>
	</g>
</g>
<g>
	<path class="st5" d="M-115.9,326.4c0,59.5-48.4,107.9-107.9,107.9c-59.5,0-107.9-48.4-107.9-107.9s48.4-107.9,107.9-107.9
		C-164.3,218.5-115.9,266.9-115.9,326.4z"/>
	<path class="st6" d="M-115.9,326.4c0,59.5-48.4,107.9-107.9,107.9V218.5C-164.3,218.5-115.9,266.9-115.9,326.4z"/>
	<path class="st7" d="M-136.3,326.4c0,48.2-39.2,87.5-87.5,87.5h0c-48.2,0-87.5-39.2-87.5-87.5c0-48.2,39.2-87.5,87.5-87.5h0
		C-175.6,238.9-136.3,278.1-136.3,326.4z"/>
	<path class="st8" d="M-136.3,326.4c0,48.2-39.2,87.5-87.5,87.5v-175C-175.6,238.9-136.3,278.1-136.3,326.4L-136.3,326.4z"/>
	<path class="st5" d="M-182,346.5c0,16-12.5,30.6-31.4,30.6v9.1c0,5.8-4.7,10.4-10.4,10.4c-5.8,0-10.4-4.7-10.4-10.4v-9.1
		c-7.8,0-14.6-1.4-21.9-6.5c-4.7-3.3-5.9-9.8-2.6-14.5c3.3-4.7,9.8-5.9,14.5-2.6c2.5,1.7,5.4,2.7,8.1,2.8h23.6
		c5.4,0,9.7-4.3,9.7-9.7c0-5.3-4.4-9.7-9.7-9.7H-235c-16.9,0-30.6-13.7-30.6-30.6c0-16,12.5-30.6,31.4-30.6v-9.1
		c0-5.8,4.7-10.4,10.4-10.4c5.8,0,10.4,4.7,10.4,10.4v9.1c9.1,0,18.6,3.9,25.6,11.3c3.9,4.2,3.7,10.8-0.5,14.8
		c-4.2,3.9-10.8,3.7-14.8-0.5c-2.8-3-6.6-4.7-10.4-4.7h-21.6c-5.4,0-9.7,4.3-9.7,9.7c0,5.3,4.4,9.7,9.7,9.7h22.4
		C-195.7,315.9-182,329.6-182,346.5L-182,346.5z"/>
	<path class="st6" d="M-213.4,296.5h-10.4v-40.4c5.8,0,10.4,4.7,10.4,10.4v9.1c9.1,0,18.6,3.9,25.6,11.3c3.9,4.2,3.7,10.8-0.5,14.8
		c-4.2,3.9-10.8,3.7-14.8-0.5C-205.8,298.3-209.6,296.5-213.4,296.5z"/>
	<path class="st6" d="M-182,346.5c0,16-12.5,30.6-31.4,30.6v9.1c0,5.8-4.7,10.4-10.4,10.4v-40.4h11.2c5.4,0,9.7-4.3,9.7-9.7
		c0-5.3-4.4-9.7-9.7-9.7h-11.2v-20.9h11.2C-195.7,315.9-182,329.6-182,346.5z"/>
	<path class="st9" d="M-122.7,507.4l-54.3,54.3c-4.8,4.8-11.3,7.5-18,7.5h-269c-3.8,0-7-3.1-7-7v-80.9c0-3.8,3.1-7,7-7h37.7
		c2.1,0,4.2-1,5.5-2.7l11.5-14.7c16.5-19.9,41-31.4,66.8-31.4l49.1,0h39.3c11.8,0,21.4,9.7,21.1,21.6c-0.3,11.6-10,20.6-21.6,20.6
		h-37.8c-0.4,0-0.7,0-1.1,0c-12.3,0.6-22.2,10.7-22.2,23.2c0,12.5,9.8,22.7,22.2,23.2c0.4,0,0.7,0,1.1,0h88.7
		c5.3,0,10.3-2.1,14.1-5.8l34.1-34.1c9.1-9.1,23.8-9.1,32.8,0C-113.7,483.6-113.7,498.3-122.7,507.4L-122.7,507.4z"/>
	<g>
		<path class="st10" d="M-292.4,467.9c-0.4,0-0.7,0-1.1,0v-42.3h39.3c11.8,0,21.4,9.7,21.1,21.6c-0.3,11.6-10,20.6-21.6,20.6
			L-292.4,467.9L-292.4,467.9z"/>
		<path class="st10" d="M-122.7,507.4l-54.3,54.3c-4.8,4.8-11.3,7.5-18,7.5h-98.4v-54.7c0.4,0,0.7,0,1.1,0h88.7
			c5.3,0,10.3-2.1,14.1-5.8l34.1-34.1c9.1-9.1,23.8-9.1,32.8,0C-113.7,483.6-113.7,498.3-122.7,507.4L-122.7,507.4z"/>
	</g>
</g>
<g>
	<path class="st11" d="M432.3,267v41.3L418,325.7h-79.3l-9.7-17.4V267l24.6-22.5c-1-1,11.8,0,27.1,1.4c20.5,2.1,45.2,5,45.2,5
		L432.3,267z"/>
	<path class="st12" d="M432.3,267v41.3L418,325.7h-37.4v-79.7c20.5,2.1,45.2,5,45.2,5L432.3,267z"/>
	<path class="st2" d="M390.3,90v41.3c0,5.8-4.5,10.3-10.3,10.3s-10.3-4.5-10.3-10.3V115L263.2,221.9c-1.9,2.1-4.5,3.1-7.2,3.1
		c-2.7,0-5.4-1-7.2-3.1L214.7,188l-75.4,75.2c-1.9,2.1-4.5,3.1-7.2,3.1s-5.4-1-7.2-3.1c-4.1-3.9-4.1-10.5,0-14.5l82.6-82.6
		c3.9-4.1,10.5-4.1,14.5,0L256,200l99-99.6h-16.3c-5.8,0-10.3-4.5-10.3-10.3c0-5.8,4.5-10.3,10.3-10.3H380
		C385.7,79.7,390.3,84.2,390.3,90z"/>
	<g>
		<path class="st11" d="M183,360v31c0,0-37.4,19.4-39.5,19.4c-0.8,0-6.2,0.2-12.2,0.4c-8.7,0-18.8,0.2-18.8,0.2l-32.8-20v-31
			c0-5.8,4.5-10.3,10.3-10.3h82.6C178.5,349.7,183,354.2,183,360z"/>
		<path class="st11" d="M307.6,349.7V391l-15.5,21.9h-65.3L204.4,391v-41.3l18.2-11h66.3L307.6,349.7z"/>
		<path class="st11" d="M432.3,349.7V391l-11.6,16.1H349L329,391v-41.3l13.6-12.8h72.3L432.3,349.7z"/>
	</g>
	<path class="st13" d="M390.3,90v41.3c0,5.8-4.5,10.3-10.3,10.3s-10.3-4.5-10.3-10.3V115L263.2,221.9c-1.9,2.1-4.5,3.1-7.2,3.1v-25
		l99-99.6h-16.3c-5.8,0-10.3-4.5-10.3-10.3c0-5.8,4.5-10.3,10.3-10.3H380C385.7,79.7,390.3,84.2,390.3,90z"/>
	<path class="st12" d="M307.6,349.7V391l-15.5,21.9H256v-74.2h32.8L307.6,349.7z"/>
	<path class="st12" d="M414.9,336.8l17.4,12.8V391l-11.6,16.1h-40.1v-70.2H414.9z"/>
	<path class="st12" d="M183,360v31c0,0-37.4,19.4-39.5,19.4c-0.8,0-6.2,0.2-12.2,0.4v-61.2h41.3C178.5,349.7,183,354.2,183,360z"/>
	<path class="st14" d="M432.3,391v31c0,5.8-4.5,10.3-10.3,10.3h-82.6c-5.8,0-10.3-4.5-10.3-10.3v-31H432.3z"/>
	<path class="st14" d="M307.6,391v31c0,5.8-4.5,10.3-10.3,10.3h-82.6c-5.8,0-10.3-4.5-10.3-10.3v-31H307.6z"/>
	<path class="st14" d="M183,391v31c0,5.8-4.5,10.3-10.3,10.3H90c-5.8,0-10.3-4.5-10.3-10.3v-31H183z"/>
	<path class="st4" d="M256,391h51.6v31c0,5.8-4.5,10.3-10.3,10.3H256V391z"/>
	<path class="st4" d="M380.6,391h51.6v31c0,5.8-4.5,10.3-10.3,10.3h-41.3V391z"/>
	<path class="st4" d="M183,391v31c0,5.8-4.5,10.3-10.3,10.3h-41.3V391H183z"/>
	<path class="st14" d="M329,308.3h103.3v41.3H329V308.3z"/>
	<path class="st14" d="M307.6,318.7v31H204.4v-31c0-5.8,4.5-10.3,10.3-10.3h82.6C303.1,308.3,307.6,312.9,307.6,318.7z"/>
	<path class="st4" d="M307.6,318.7v31H256v-41.3h41.3C303.1,308.3,307.6,312.9,307.6,318.7z"/>
	<path class="st4" d="M380.6,308.3h51.6v41.3h-51.6V308.3z"/>
	<path class="st14" d="M432.3,225.7V267H329v-41.3c0-5.8,4.5-10.3,10.3-10.3H422C427.8,215.4,432.3,219.9,432.3,225.7z"/>
	<path class="st4" d="M432.3,225.7V267h-51.6v-51.6H422C427.8,215.4,432.3,219.9,432.3,225.7z"/>
</g>
</svg>
