<?xml version="1.0" encoding="utf-8"?>
<!-- Generator: Adobe Illustrator 24.0.0, SVG Export Plug-In . SVG Version: 6.00 Build 0)  -->
<svg version="1.1" id="Layer_1" xmlns="http://www.w3.org/2000/svg" xmlns:xlink="http://www.w3.org/1999/xlink" x="0px" y="0px"
	 viewBox="0 0 512 512" style="enable-background:new 0 0 512 512;" xml:space="preserve">
<style type="text/css">
	.st0{fill:#FFFFFF;}
	.st1{fill:#FF637B;}
	.st2{fill:#E63950;}
	.st3{fill:#FFDA2D;}
	.st4{fill:#FDBF00;}
	.st5{fill:#FF9100;}
</style>
<g>
	<circle class="st0" cx="256" cy="256" r="256"/>
	<g>
		<path class="st1" d="M214.5,196.2c-3.5,0-7.3,0-11,0.4h-0.6C134.7,203,78.8,267.7,78.8,339.8c0,83.7,77.8,93.5,135.7,93.5
			c57.5,0,124.6-8.7,134-77.5C358.2,275.2,294.2,196.2,214.5,196.2z"/>
		<path class="st2" d="M348.4,355.8c-9.3,68.8-76.4,77.5-134,77.5V196.2C294.2,196.2,358.2,275.2,348.4,355.8z"/>
		<path class="st1" d="M286.5,113.2l-20.8,63H163.2l-20.8-63c-1.2-3.1-0.6-6.6,1.2-9.3c2.1-2.7,5.2-4.4,8.5-4.4h33
			c4.2-12,15.8-20.8,29.3-20.8s24.9,8.7,29.3,20.8h33c3.3,0,6.4,1.7,8.5,4.4C287.2,106.6,287.8,110.1,286.5,113.2z"/>
		<path class="st2" d="M286.5,113.2l-20.8,63h-51.3V78.8c13.5,0,24.9,8.7,29.3,20.8h33c3.3,0,6.4,1.7,8.5,4.4
			C287.2,106.6,287.8,110.1,286.5,113.2z"/>
		<path class="st3" d="M245.4,342.9c0,13.5-8.5,24.7-20.6,29.1v9.3c0,5.8-4.6,10.4-10.4,10.4c-5.8,0-10.4-4.6-10.4-10.4v-9.1
			c-12-4.4-21-15.8-21-29.3c0-5.8,4.8-10.4,10.4-10.4c5.8,0,10.4,4.6,10.4,10.4c0,5.6,4.8,10.4,10.4,10.4h0.2
			c5.8-0.2,10.2-4.8,10.2-10.4c0-5.8-4.4-10.2-10.2-10.4h-0.2c-17,0-31.2-14.1-31.2-31.2c0-13.7,8.9-25.1,21-29.3v-15.4
			c0-5.8,4.6-10.4,10.4-10.4c5.8,0,10.4,4.6,10.4,10.4v15.4c12,4.4,20.6,15.8,20.6,29.3c0,5.6-4.6,10.4-10.4,10.4
			c-5.6,0-10.4-4.8-10.4-10.4c0-5.8-4.4-10.2-10.2-10.4h-0.2c-5.6,0-10.4,4.6-10.4,10.4c0,5.6,4.8,10.4,10.4,10.4h0.2
			C231.7,311.9,245.4,325.7,245.4,342.9z"/>
		<path class="st3" d="M433.2,287.8c0,11.4-9.3,20.8-20.8,20.8l-52.6,20.8l-51.9-20.8c-11.4,0-20.8-9.3-20.8-20.8
			c0-11.4,9.3-20.8,20.8-20.8h104.5C423.9,267.1,433.2,276.4,433.2,287.8z"/>
		<path class="st4" d="M433.2,287.8c0,11.4-9.3,20.8-20.8,20.8l-52.6,20.8v-62.3h52.6C423.9,267.1,433.2,276.4,433.2,287.8z"/>
		<path class="st4" d="M433.2,329.4c0,11.4-9.3,20.8-20.8,20.8l-52.6,20.8l-51.9-20.8c-11.4,0-20.8-9.3-20.8-20.8
			s9.3-20.8,20.8-20.8h104.5C423.9,308.6,433.2,318,433.2,329.4z"/>
		<path class="st5" d="M433.2,329.4c0,11.4-9.3,20.8-20.8,20.8l-52.6,20.8v-62.3h52.6C423.9,308.6,433.2,318,433.2,329.4z"/>
		<path class="st3" d="M433.2,370.9c0,11.4-9.3,20.8-20.8,20.8l-52.6,20.8l-51.9-20.8c-11.4,0-20.8-9.3-20.8-20.8
			c0-11.4,9.3-20.8,20.8-20.8h104.5C423.9,350.2,433.2,359.5,433.2,370.9z"/>
		<path class="st4" d="M433.2,370.9c0,11.4-9.3,20.8-20.8,20.8l-52.6,20.8v-62.3h52.6C423.9,350.2,433.2,359.5,433.2,370.9z"/>
		<path class="st4" d="M433.2,412.5c0,11.4-9.3,20.8-20.8,20.8H307.9c-11.4,0-20.8-9.3-20.8-20.8c0-11.4,9.3-20.8,20.8-20.8h104.5
			C423.9,391.7,433.2,401,433.2,412.5z"/>
		<path class="st5" d="M433.2,412.5c0,11.4-9.3,20.8-20.8,20.8h-52.6v-41.5h52.6C423.9,391.7,433.2,401,433.2,412.5z"/>
		<path class="st3" d="M287.2,183.3c0,11.4-9.3,20.8-20.8,20.8H162.5c-11.4,0-20.8-9.3-20.8-20.8c0-11.4,9.3-20.8,20.8-20.8h103.9
			C277.8,162.5,287.2,171.9,287.2,183.3z"/>
		<g>
			<path class="st4" d="M245.4,342.9c0,13.5-8.5,24.7-20.6,29.1v9.3c0,5.8-4.6,10.4-10.4,10.4v-38.4c5.8-0.2,10.2-4.8,10.2-10.4
				c0-5.8-4.4-10.2-10.2-10.4v-20.8C231.7,311.9,245.4,325.7,245.4,342.9z"/>
			<path class="st4" d="M245.4,301.3c0,5.6-4.6,10.4-10.4,10.4c-5.6,0-10.4-4.8-10.4-10.4c0-5.8-4.4-10.2-10.2-10.4v-44.7
				c5.8,0,10.4,4.6,10.4,10.4v15.4C236.9,276.4,245.4,287.8,245.4,301.3z"/>
			<path class="st4" d="M287.2,183.3c0,11.4-9.3,20.8-20.8,20.8h-51.9v-41.5h51.9C277.8,162.5,287.2,171.9,287.2,183.3z"/>
		</g>
	</g>
</g>
</svg>
